<svg xmlns="http://www.w3.org/2000/svg" xmlns:xlink="http://www.w3.org/1999/xlink" width="200" height="28" viewBox="0 0 200 28"><defs><style>.a{fill:none;}.b{clip-path:url(#a);}.c{fill:#fff;}.d{fill:#221714;}.e{fill:#c21a22;}</style><clipPath id="a"><rect class="a" width="200" height="28" transform="translate(3.047 4.242)"/></clipPath></defs><g transform="translate(-3.047 -4.242)"><g class="b"><path class="c" d="M9.857,29.686a17.989,17.989,0,0,0,3.507,1.62,18.348,18.348,0,0,0,14.87-1.474c.09-.057.184-.109.271-.16l.709-.46a3.369,3.369,0,0,0,1.339-1.351,2.811,2.811,0,0,0,.217-.664,2.729,2.729,0,0,0-.583-2.236,2.783,2.783,0,0,0-2.054-1H23.977a6.662,6.662,0,0,1-.871-.074l-.7-.127a6.877,6.877,0,0,1-2.518-12.2A7,7,0,0,1,28.9,12.1a6.855,6.855,0,0,1-.642,10.461h3.05a4.329,4.329,0,0,0,4-4.294,13.135,13.135,0,0,0-.556-3.716,14.53,14.53,0,0,0-5.183-7.019c-.069-.047-.137-.1-.2-.147a17.7,17.7,0,0,0-9.843-3.145h-.307a17.369,17.369,0,0,0-11.9,4.528c-.075.068-.15.138-.22.206-.271.252-.539.528-.787.8a12.911,12.911,0,0,0-3.16,10.166,14.1,14.1,0,0,0,5.808,9.146c.07.044.134.092.2.137Zm3.077-4.739h-.743v-.711h.743Z"/><path class="d" d="M60.025,27.039a51.544,51.544,0,0,1-5.8-4.129h2.683a1.573,1.573,0,0,0,1.58-1.562V15.814a1.577,1.577,0,0,0-1.58-1.563h-5.6v-1.3h7.876c.56,0,1.13-.319,1.13-.862v-.962c0-.544-.57-.86-1.13-.86H51.307V9.686A1.268,1.268,0,0,0,50.16,8.347H48.794a1.265,1.265,0,0,0-1.158,1.339v.585H39.7c-.566,0-1.132.317-1.132.86v.962c0,.544.567.862,1.132.862h7.933v1.3H42.045a1.575,1.575,0,0,0-1.578,1.563v5.535a1.571,1.571,0,0,0,1.578,1.562H44.7a38.679,38.679,0,0,1-5.828,4.161.858.858,0,0,0-.268,1.155l.73,1.164c.269.423,1,.427,1.537.171a28.5,28.5,0,0,0,6.769-5.179v3.846a1.338,1.338,0,0,0,1.212,1.444H50.1a1.327,1.327,0,0,0,1.2-1.444V24.448a31.725,31.725,0,0,0,6.772,5.032c.534.277,1.275.333,1.545-.09l.736-1.164a.938.938,0,0,0-.335-1.187m-8.718-7.5H55.07v1.279H51.307Zm3.762-1.556H51.307V16.621H55.07Zm-7.434,0H43.885V16.621h3.751Zm-3.751,1.556h3.751v1.279H43.885Z"/><path class="d" d="M107.837,27.039a51.669,51.669,0,0,1-5.8-4.129h2.687a1.57,1.57,0,0,0,1.575-1.562V15.814a1.574,1.574,0,0,0-1.575-1.563h-5.6v-1.3h7.872c.562,0,1.132-.319,1.132-.862v-.962c0-.544-.57-.86-1.132-.86H99.12V9.686a1.271,1.271,0,0,0-1.155-1.339H96.6a1.264,1.264,0,0,0-1.155,1.339v.585H87.509c-.558,0-1.128.317-1.128.86v.962c0,.544.57.862,1.128.862h7.936v1.3H89.852a1.575,1.575,0,0,0-1.576,1.563v5.535a1.571,1.571,0,0,0,1.576,1.562h2.657a38.955,38.955,0,0,1-5.83,4.161.864.864,0,0,0-.272,1.155l.736,1.164c.269.423.992.427,1.538.171a28.549,28.549,0,0,0,6.766-5.179v3.846a1.337,1.337,0,0,0,1.21,1.444h1.256a1.328,1.328,0,0,0,1.208-1.444V24.448a31.6,31.6,0,0,0,6.769,5.032c.533.277,1.278.333,1.546-.09l.733-1.164a.936.936,0,0,0-.331-1.187m-8.717-7.5h3.757v1.279H99.12Zm3.759-1.556H99.122V16.621h3.757Zm-7.433,0H91.695V16.621h3.751Zm-3.751,1.556h3.751v1.279H91.695Z"/><path class="d" d="M63.6,13.049H83.084c.559,0,1.127-.318,1.127-.864V11.13c0-.541-.568-.858-1.127-.858H75.235V9.685c0-.691-.334-1.337-1.126-1.337H72.683a1.192,1.192,0,0,0-1.125,1.337v.587H63.6c-.562,0-1.129.317-1.129.858v1.054c0,.547.567.864,1.129.864"/><path class="d" d="M68.84,24.04l-1.29-1.09a.982.982,0,0,0-1.312.133,42.408,42.408,0,0,1-3.7,4.041.932.932,0,0,0-.029,1.266l1.292,1.139a1.064,1.064,0,0,0,1.325-.121,27.093,27.093,0,0,0,3.725-4.346c.17-.308.268-.8-.016-1.021"/><path class="d" d="M84.252,27.117C83.127,26,81.175,23.988,80.47,23.15a1.177,1.177,0,0,0-1.46-.14l-1.122,1.047a.87.87,0,0,0-.028,1.071,29.983,29.983,0,0,0,4.061,4.347,1.084,1.084,0,0,0,1.337-.037L84.25,28.4a.916.916,0,0,0,0-1.283"/><path class="d" d="M77.907,22.528c.435-.244.881-.533,1.064-.652a1.553,1.553,0,0,1,1.537-.009,3.98,3.98,0,0,1,.839.59,1.452,1.452,0,0,0,1.005-1.367V15.7a1.453,1.453,0,0,0-1.456-1.441H65.82A1.452,1.452,0,0,0,64.368,15.7V21.09a1.449,1.449,0,0,0,1.123,1.4c.279-.218.5-.4.693-.55a1.522,1.522,0,0,1,1.611-.063c.283.16.809.446,1.173.652h2.59v4.154H69.494a.783.783,0,0,0-.824.812v1.348a.817.817,0,0,0,.887.84h3.471a2.061,2.061,0,0,0,2.206-2.038V22.528ZM67.759,16.806h11.2v3.18h-11.2Z"/><path class="d" d="M118.933,11.779h10.884a.908.908,0,0,0,.908-.9v-.688a.906.906,0,0,0-.908-.9H118.933a.908.908,0,0,0-.908.9v.688a.91.91,0,0,0,.908.9"/><path class="d" d="M131.227,12.926H117.6a.906.906,0,0,0-.909.9v.62a.908.908,0,0,0,.909.9h13.629a.905.905,0,0,0,.907-.9v-.62a.9.9,0,0,0-.907-.9"/><path class="d" d="M118.831,18.635h11.142a.79.79,0,0,0,.79-.781v-.648a.793.793,0,0,0-.79-.784H118.831a.79.79,0,0,0-.788.784v.648a.787.787,0,0,0,.788.781"/><path class="d" d="M.782,0H11.939a.782.782,0,0,1,.782.782v.641a.783.783,0,0,1-.783.783H.783A.783.783,0,0,1,0,1.423V.782A.782.782,0,0,1,.782,0Z" transform="translate(118.043 19.695)"/><path class="d" d="M129.8,22.979H119.052a1.454,1.454,0,0,0-1.454,1.448v3.528a1.449,1.449,0,0,0,1.454,1.439H129.8a1.449,1.449,0,0,0,1.451-1.439V24.427a1.453,1.453,0,0,0-1.451-1.448M128,27.25h-7.158V25.127H128Z"/><path class="d" d="M115.364,14.7V13.573a1.8,1.8,0,0,1,1.354-1.668,16.03,16.03,0,0,0,.682-1.582c.189-.541.17-1.164-.337-1.371l-1.35-.6a1.227,1.227,0,0,0-1.591.637c-1.042,2.526-3.454,6.8-4.709,9.08a1.17,1.17,0,0,0,.254,1.519l1.21.643a1.087,1.087,0,0,0,1.346-.316c.117-.175.256-.394.4-.629v8.947a1.334,1.334,0,0,0,1.208,1.443h1.259a1.33,1.33,0,0,0,1.209-1.443V16.235a1.724,1.724,0,0,1-.936-1.536"/><path class="d" d="M152.66,9.266H137.14a1.815,1.815,0,0,0-1.833,1.857v9.753a11.188,11.188,0,0,1-1.176,5.974,1.24,1.24,0,0,0,.228,1.59c.36.211.966.585,1.266.8a1.183,1.183,0,0,0,1.532-.286,12.186,12.186,0,0,0,1.762-5.921h4.672v4.826c0,.834.342,1.445,1.208,1.445h.971c.863,0,1.207-.611,1.207-1.445V23.033h4.674v3.226h-1.716a1.172,1.172,0,0,0-1.171,1.11v.809a1.111,1.111,0,0,0,1.091,1.14h2.867a2.109,2.109,0,0,0,2.207-2.1V11.46a2.209,2.209,0,0,0-2.269-2.194m-1.008,5.868h-4.674V12.455l4.674-.007Zm-8.06-2.674v2.674h-4.578V12.465Zm-4.578,5.219h4.578v2.809h-4.578Zm7.964,0h4.674v2.809h-4.674Z"/><path class="d" d="M202.255,25.766h-6.048V24.69h4.341a1.334,1.334,0,0,0,1.333-1.325V18.877a1.332,1.332,0,0,0-1.333-1.323h-4.341V16.471h5.264a.776.776,0,0,0,.785-.763v-.63a.78.78,0,0,0-.785-.762h-5.264V13.182h5.674a1.089,1.089,0,0,0,1.129-1.023V11.2a1.09,1.09,0,0,0-1.129-1.024h-6.731V9.487a1.2,1.2,0,0,0-1.24-1.14h-1.471a1.2,1.2,0,0,0-1.249,1.14v.692h-6.612a1.556,1.556,0,0,0-1.587,1.629v8.56a16.6,16.6,0,0,1-1.34,7.358,1.043,1.043,0,0,0,.338,1.434l1.232.514a1.1,1.1,0,0,0,1.492-.433,9.606,9.606,0,0,0,.487-1,1.235,1.235,0,0,1-.348-.965v-.784a1.753,1.753,0,0,1,1.277-1.759,30.525,30.525,0,0,0,.233-4.115V13.182h6.652v1.134h-5.4a.779.779,0,0,0-.788.762v.63a.775.775,0,0,0,.788.763h5.4v1.083H188.5a1.331,1.331,0,0,0-1.33,1.323v4.488a1.333,1.333,0,0,0,1.33,1.325h4.513v1.076H186.89a.8.8,0,0,0-.791.8v.653a.792.792,0,0,0,.791.787h6.122v.455a1.124,1.124,0,0,0,1.109,1.218h.964a1.129,1.129,0,0,0,1.122-1.218V28h6.048a.791.791,0,0,0,.791-.787v-.653a.8.8,0,0,0-.791-.8m-6.048-3.9h2.546V22.96h-2.546Zm2.545-1.544H196.2v-1.1h2.547Zm-5.74,0H190.2v-1.1h2.811ZM190.2,21.867h2.811V22.96H190.2Z"/><path class="d" d="M179.7,14.994a87.96,87.96,0,0,1-8.623-5.887,3.428,3.428,0,0,0-2.253-.758,3.5,3.5,0,0,0-2.359.722c-2.467,1.909-6.171,4.376-8.731,5.978a1.116,1.116,0,0,0-.391,1.509l.861,1.333a1.188,1.188,0,0,0,1.527.194c.673-.4,1.525-.937,2.45-1.531a.914.914,0,0,0,.844.563h3.989V19.2h-7.032a1.147,1.147,0,0,0-1.148,1.143v.736a1.148,1.148,0,0,0,1.148,1.143h1.15a4.05,4.05,0,0,1,1.92-.79,1.659,1.659,0,0,1,2.132.79h1.83v4.107H165.8c-.371-.889-.908-2.574-1.13-3.224a1.046,1.046,0,0,0-1.346-.638l-1.2.4a1,1,0,0,0-.508,1.259c.142.537.458,1.584.679,2.206h-2.738a1.053,1.053,0,0,0-1.125.97v.984a1.05,1.05,0,0,0,1.125.967h18.531a1.05,1.05,0,0,0,1.125-.967V27.3a1.053,1.053,0,0,0-1.125-.97h-2.748c.233-.612.577-1.6.714-2.132a1.09,1.09,0,0,0-.605-1.37l-1.234-.361a1.09,1.09,0,0,0-1.394.692c-.219.645-.712,2.285-1.075,3.171h-1.1V22.225h1.75a1.706,1.706,0,0,1,2.116-.8,5.229,5.229,0,0,1,2.093.8h1.039a1.154,1.154,0,0,0,1.154-1.143v-.736a1.153,1.153,0,0,0-1.154-1.143h-7V17.116h3.933a.909.909,0,0,0,.827-.536c.925.586,1.8,1.109,2.533,1.5.6.326,1.119.271,1.428-.208l.766-1.258a1.172,1.172,0,0,0-.434-1.623m-14.293-.581c1.394-.966,2.661-1.894,3.428-2.564a38.76,38.76,0,0,0,3.314,2.564Z"/><path class="e" d="M34.75,14.555a14.53,14.53,0,0,0-5.183-7.019c-.069-.047-.137-.1-.2-.147a17.7,17.7,0,0,0-9.843-3.145h-.307a17.369,17.369,0,0,0-11.9,4.528c-.075.068-.15.138-.22.206-.271.252-.539.528-.787.8a12.911,12.911,0,0,0-3.16,10.166,14.1,14.1,0,0,0,5.808,9.146c.07.044.134.092.2.137V22.648h.7v2.71H11.39l0,4.315h-.693V25.991H9.857v3.7a17.989,17.989,0,0,0,3.507,1.62,18.348,18.348,0,0,0,14.87-1.474c.09-.057.184-.109.271-.16V25.991h-.843v3.682h-.7V25.357h2.254v3.855a3.369,3.369,0,0,0,1.339-1.351,2.811,2.811,0,0,0,.217-.664,2.729,2.729,0,0,0-.583-2.236,2.783,2.783,0,0,0-2.054-1H23.977a6.662,6.662,0,0,1-.871-.074v1.469h1.531v4.315h-.7V25.991h-.836l0,3.682h-.7V23.762a6.877,6.877,0,0,1-2.518-12.2A7,7,0,0,1,28.9,12.1a6.855,6.855,0,0,1-.642,10.461h3.05a4.329,4.329,0,0,0,4-4.294,13.135,13.135,0,0,0-.556-3.716M12.935,29.673h-.743V25.356h.743Zm0-4.726h-.743v-.711h.743Zm13.239,0h-.743v-.711h.743Zm0,4.726h-.743V25.356h.743Zm-6.626-.633h1.365V27.833H19.548V25.357h2.077v.633H20.243v1.2h1.388v2.481H19.543Zm-3.761,2.37h-2.06v-.7H15.09V29.673H13.726V25.357h2.06Zm2.978-6.052v4.315H16.578V27.192l1.478-.007V25.991H16.575v-.633h2.189M15.09,29.04h-.67V25.991h.67Zm2.967,0h-.779V27.834h.779Z"/></g></g></svg>