<svg xmlns="http://www.w3.org/2000/svg" xmlns:xlink="http://www.w3.org/1999/xlink" width="200.001" height="174.968" viewBox="0 0 200.001 174.968"><defs><style>.a{fill:none;}.b{clip-path:url(#a);}.c{fill:#c21a22;}</style><clipPath id="a"><rect class="a" width="200.001" height="174.968" transform="translate(0 0)"/></clipPath></defs><g class="b"><path class="c" d="M196.553,64.452a90.735,90.735,0,0,0-32.136-43.866c-.425-.3-.851-.619-1.257-.922A109.146,109.146,0,0,0,102.137.013c-.625-.006-1.27-.006-1.9-.006A107.2,107.2,0,0,0,26.477,28.3c-.464.425-.928.864-1.366,1.289-1.682,1.573-3.345,3.3-4.879,5.021A81.134,81.134,0,0,0,.632,98.135a88.219,88.219,0,0,0,36.009,57.15c.432.277.838.574,1.263.857V115.015h4.325v16.932h9.5l-.019,26.967H47.417V135.9H42.229V159a111.063,111.063,0,0,0,21.733,10.125,112.976,112.976,0,0,0,92.2-9.21c.561-.354,1.141-.683,1.682-1V135.9h-5.227v23.009h-4.351V131.946h13.973v24.092a20.972,20.972,0,0,0,8.3-8.443,17.648,17.648,0,0,0,1.341-4.151,17.113,17.113,0,0,0-16.345-20.212H129.761a42.306,42.306,0,0,1-5.4-.458v9.172h9.5v26.967h-4.312V135.9H124.36l-.013,23.009H120V121.975A43.157,43.157,0,1,1,156.29,114.5H175.2A26.945,26.945,0,0,0,200,87.668a82.6,82.6,0,0,0-3.448-23.216M61.3,158.913H56.692V131.94H61.3Zm0-29.532H56.692v-4.447H61.3Zm82.08,0h-4.608v-4.447h4.608Zm0,29.532h-4.608V131.94h4.608ZM102.3,154.955h8.463v-7.541H102.3V131.946h12.878V135.9h-8.566v7.509h8.6v15.5H102.279ZM78.986,169.767H66.212v-4.351h8.456v-6.5H66.212V131.946H78.986Zm18.465-37.82v26.967H83.9v-15.5l9.165-.045V135.9H83.878v-3.957H97.451M74.668,154.955H70.517V135.9h4.151Zm18.395,0H88.235v-7.528h4.827Z"/></g></svg>